# Blender 5.0.0
# www.blender.org
mtllib house_roof.mtl
o Cube.001
v 1.044721 1.477639 -3.060000
v 1.044721 1.477639 1.050000
v -1.044721 1.477639 -3.060000
v -1.044721 1.477639 1.050000
v 0.000000 2.000000 1.050000
v 0.000000 2.000000 -3.060000
v -0.704245 1.908522 0.000367
v -0.505615 1.694264 0.257371
v 1.017889 1.423974 -3.060000
v 1.017889 1.423974 1.050000
v -1.017889 1.423974 -3.060000
v -1.017889 1.423974 1.050000
v 0.000000 1.940000 1.050000
v 0.000000 1.940000 -3.060000
v -0.687406 1.850934 0.000358
v -0.492230 1.636175 0.250557
vn -0.4472 0.8944 -0.0000
vn 0.4472 0.8944 -0.0000
vn 0.4522 -0.8919 -0.0000
vn -0.4522 -0.8919 -0.0000
vn -0.0000 -0.0000 1.0000
vn 0.8944 -0.4472 -0.0000
vn -0.8944 -0.4472 -0.0000
vn -0.0000 -0.0000 -1.0000
vt 0.750000 0.500000
vt 0.875000 0.500000
vt 0.875000 0.750000
vt 0.750000 0.750000
vt 0.625000 0.500000
vt 0.625000 0.750000
s 0
usemtl Material.001
f 6/1/1 3/2/1 4/3/1 5/4/1
f 1/5/2 6/1/2 5/4/2 2/6/2
f 14/1/3 13/4/3 12/3/3 11/2/3
f 9/5/4 10/6/4 13/4/4 14/1/4
f 5/4/5 4/3/5 12/3/5 13/4/5
f 1/5/6 2/6/6 10/6/6 9/5/6
f 4/3/7 3/2/7 11/2/7 12/3/7
f 6/1/8 1/5/8 9/5/8 14/1/8
f 2/6/5 5/4/5 13/4/5 10/6/5
f 3/2/8 6/1/8 14/1/8 11/2/8
